<svg width="28" height="69" viewBox="0 0 28 69" fill="none" xmlns="http://www.w3.org/2000/svg">
<path d="M25.5378 20.2029C24.0623 18.1773 22.0459 16.6008 19.6767 15.6134V6.0491C20.6441 6.01392 21.4202 5.2643 21.4202 4.34535V1.7071C21.4202 0.765802 20.6065 0 19.6064 0H8.3938C7.39367 0 6.58 0.765802 6.58 1.7071V4.34535C6.58 5.17938 7.2192 5.87443 8.06048 6.02229V15.7135C3.1421 17.9043 0 22.5101 0 27.6149V65.0517C0 67.202 1.85872 68.9514 4.14352 68.9514H23.8566C26.1413 68.9514 28 67.202 28 65.0517V27.6973C28 25.0059 27.1485 22.4144 25.5378 20.2029ZM8.55869 1.86229H19.4415V4.19016H8.55869V1.86229ZM26.0213 65.0517C26.0213 66.1942 25.0705 67.0891 23.8566 67.0891H4.14352C2.92955 67.0891 1.97869 66.1942 1.97869 65.0517V27.6149C1.97869 23.056 4.90405 18.9589 9.43145 17.1769L10.0392 16.9377V6.05245H17.698V16.8741L18.3312 17.1041C23.0027 18.8011 26.0213 22.9592 26.0213 27.6973V65.0517Z" fill="#363636"/>
</svg>
