<svg width="55" height="67" viewBox="0 0 55 67" fill="none" xmlns="http://www.w3.org/2000/svg">
<path d="M54.8492 40.158C54.8492 36.6351 52.5418 33.5471 49.0978 31.8494C52.5114 30.1656 54.8086 27.1108 54.8424 23.6184V23.5409C54.8458 23.5049 54.8424 23.4689 54.8424 23.4356C54.7713 19.5112 51.8686 16.0466 47.4062 14.5843L37.9333 11.4824V2.76951H39.6249C40.5586 2.76951 41.3164 2.14914 41.3164 1.38476C41.3164 0.620371 40.5586 0 39.6249 0H15.9426C15.0089 0 14.251 0.620371 14.251 1.38476C14.251 2.14914 15.0089 2.76951 15.9426 2.76951H17.6342V11.4824L8.16131 14.5843C3.70228 16.0466 0.799519 19.5057 0.725089 23.4329C0.721705 23.4689 0.718323 23.5049 0.718323 23.5436V23.5907C0.718323 23.6267 0.718322 23.6627 0.725089 23.6987C0.789369 27.1551 3.07978 30.1794 6.46972 31.8522C3.02903 33.5499 0.718323 36.6379 0.718323 40.1607C0.718323 43.6836 3.02565 46.7716 6.46634 48.4693C3.02565 50.167 0.718323 53.255 0.718323 56.7778C0.718323 62.123 6.02991 66.4711 12.5594 66.4711H43.008C49.5376 66.4711 54.8492 62.123 54.8492 56.7778C54.8492 53.255 52.5418 50.167 49.1011 48.4693C52.5418 46.7716 54.8492 43.6836 54.8492 40.1607V40.158ZM4.10488 23.563C4.11503 20.727 6.19907 18.2096 9.41647 17.1571L19.9517 13.7063C20.5945 13.4958 21.014 12.9863 21.014 12.4213V2.76951H34.5467V12.4185C34.5467 12.9863 34.9662 13.4931 35.609 13.7036L46.1442 17.1544C49.3616 18.2096 51.4457 20.7243 51.4558 23.5575C51.4491 27.3656 47.6565 30.4647 43.0013 30.4647H12.5594C7.90419 30.4647 4.11165 27.3656 4.10488 23.563ZM51.466 56.7751C51.466 60.5914 47.6734 63.6988 43.008 63.6988H12.5594C7.89404 63.6988 4.1015 60.5914 4.1015 56.7751C4.1015 52.9587 7.89404 49.8513 12.5594 49.8513H43.008C47.6734 49.8513 51.466 52.9587 51.466 56.7751ZM12.5594 47.0818C7.89404 47.0818 4.1015 43.9744 4.1015 40.158C4.1015 36.3416 7.89404 33.2342 12.5594 33.2342H43.008C47.6734 33.2342 51.466 36.3416 51.466 40.158C51.466 43.9744 47.6734 47.0818 43.008 47.0818H12.5594Z" fill="#353535"/>
</svg>
