<svg width="70" height="66" viewBox="0 0 70 66" fill="none" xmlns="http://www.w3.org/2000/svg">
<path d="M51.7951 19.2253C43.8204 20.1083 37.9642 24.1366 34.9043 30.7233C32.6164 25.812 27.868 20.325 18.0323 19.2253C16.6733 19.08 15.3176 19.4749 14.3164 20.3277C13.3121 21.186 12.8194 22.3679 12.9638 23.5717C14.671 37.82 28.4831 39.564 33.3382 39.7313V45.243C33.3382 45.9999 34.0412 46.6141 34.9074 46.6141C35.7736 46.6141 36.4766 45.9999 36.4766 45.243V39.7148C41.3191 39.5476 55.059 37.809 56.8479 23.5881C56.9986 22.3816 56.5121 21.1942 55.5047 20.3332C54.5067 19.4749 53.1509 19.0773 51.7888 19.2226L51.7951 19.2253ZM33.3382 37.0138C29.1767 36.9123 17.5552 35.5248 16.0865 23.2865C16.0425 22.9218 16.1994 22.5598 16.5133 22.2911C16.78 22.0635 17.1221 21.9401 17.4736 21.9401C17.5301 21.9401 17.5835 21.9401 17.6368 21.9483C28.0877 23.1137 31.9479 29.9637 33.3413 35.5659V37.0138H33.3382ZM53.7315 23.292C52.2 35.4727 40.6287 36.8849 36.4797 36.9973V35.6509C36.4797 35.6345 36.4797 35.6153 36.4797 35.5988V35.5687C37.892 29.9582 41.7742 23.1028 52.1905 21.9511C52.5891 21.8935 53.0034 22.0306 53.3078 22.2938C53.6248 22.5653 53.7754 22.9245 53.7315 23.292ZM68.7832 59.0361L66.2945 54.5308V11.284L68.7111 6.93494C69.6588 5.48434 69.6526 3.75403 68.6891 2.30891C67.7287 0.863783 66.0152 0 64.1039 0H5.71721C3.80593 0 2.09236 0.861041 1.13201 2.30891C0.168528 3.75403 0.162251 5.48434 1.06297 6.85268L3.52661 11.284V54.5308L1.08808 58.9566C0.143421 60.4072 0.155974 62.1348 1.11632 63.5772C2.07981 65.0195 3.79023 65.8778 5.69838 65.8778H64.1259C66.034 65.8778 67.7444 65.0195 68.7079 63.5772C69.6683 62.1348 69.6808 60.4072 68.7832 59.0361ZM6.665 10.9687H63.1561V54.8434H6.665V10.9687ZM3.84672 3.68547C4.23902 3.09591 4.94202 2.74217 5.72035 2.74217H64.107C64.8853 2.74217 65.5883 3.09317 65.9806 3.68547C66.3729 4.27778 66.3761 4.98252 65.9367 5.65709L64.5087 8.22925H5.31549L3.84045 5.57757C3.45129 4.98526 3.45443 4.27778 3.84672 3.68822V3.68547ZM65.9963 62.1979C65.5978 62.7929 64.9167 63.1357 64.1259 63.1357H5.69524C4.90436 63.1357 4.22333 62.7929 3.82476 62.1979C3.43246 61.6083 3.42932 60.9008 3.86242 60.229L5.32177 57.5883H64.4993L66.0058 60.3112C66.3886 60.9035 66.3855 61.611 65.9932 62.2006L65.9963 62.1979Z" fill="#353535"/>
</svg>
