<svg width="90" height="65" viewBox="0 0 90 65" fill="none" xmlns="http://www.w3.org/2000/svg">
<path fill-rule="evenodd" clip-rule="evenodd" d="M23.5267 8.75155C15.8611 17.1526 15.5973 17.591 16.6779 20.1508C17.2958 21.6142 17.8011 23.1313 17.8011 23.5203C17.8011 23.91 13.9201 26.2971 9.1767 28.8251L0.552322 33.4208V44.3674V55.314L12.3474 59.893C18.835 62.4109 24.8061 64.4711 25.6178 64.4711C26.4285 64.4711 30.5946 62.141 34.8763 59.2937C39.1571 56.4456 43.2187 53.7676 43.9015 53.3418C44.7589 52.807 47.4091 54.123 52.4528 57.5872L59.7622 62.607L63.8938 61.1218C78.2194 55.9712 83.6051 53.5933 84.1084 52.1935C87.2233 43.5393 89.8827 34.73 89.6371 33.8827C89.4697 33.3068 85.2346 29.9424 80.2264 26.4061C73.3685 21.5656 70.4981 20.0376 68.6048 20.222C66.2772 20.4483 65.7922 19.8113 62.0969 11.6659C59.9002 6.82542 57.9643 2.72841 57.7939 2.56161C57.4205 2.19784 36.4176 -0.0199803 33.5279 0.000135989C32.148 0.00935595 28.9489 2.80803 23.5267 8.75155ZM45.9145 3.55653L54.2426 4.54139L49.2354 11.6659C46.4817 15.5844 44.0983 19.0855 43.9401 19.4459C43.7037 19.9857 21.0915 17.7175 20.0008 17.0445C19.8151 16.9305 22.5546 13.6147 26.0886 9.67607C33.2945 1.64548 32.3114 1.9489 45.9145 3.55653ZM60.0656 14.1008L63.2658 21.5581L57.529 23.2395C47.2092 26.2644 47.4781 26.2569 46.7496 23.5169C46.224 21.5405 47.0601 19.6294 50.9715 13.8653C53.6552 9.91159 56.0781 6.67036 56.3571 6.66114C56.6362 6.65192 58.3052 9.9996 60.0656 14.1008ZM42.2426 22.5547C43.3739 22.5689 45.1414 26.7347 44.5529 28.0003C43.7108 29.8141 43.1142 29.6834 32.9536 25.4682C27.916 23.3778 23.0335 21.7752 22.1031 21.9059C21.1727 22.0367 20.2595 21.5371 20.0739 20.7962C19.7685 19.5741 20.7567 19.5934 30.691 20.9982C36.7159 21.8506 41.9138 22.5505 42.2426 22.5547ZM78.1444 28.1788C83.1262 31.7051 85.5532 33.9329 84.6624 34.1651C83.8831 34.3688 79.3122 36.1575 74.5049 38.1389L65.7648 41.7422L57.0796 35.1558L48.3943 28.5694L58.2099 25.676C63.6087 24.0843 68.5165 22.7324 69.1161 22.672C69.7168 22.6117 73.7794 25.0893 78.1444 28.1788ZM32.4179 28.0372L42.1918 31.8358L35.3228 36.5665C31.5453 39.1682 27.6836 41.8344 26.741 42.4907C25.2221 43.5485 23.8645 43.1739 14.8242 39.2001C9.21323 36.7341 4.63318 34.5272 4.64637 34.2967C4.66666 33.9539 8.39341 31.8702 22.5049 24.3123C22.582 24.2721 27.0424 25.9476 32.4179 28.0372ZM55.8336 37.5698L63.5671 43.7765L61.3106 50.9806C60.0697 54.9427 58.9282 58.3222 58.774 58.4899C58.6188 58.6584 55.7291 56.8102 52.3514 54.3828L46.2108 49.9706V40.3877C46.2108 34.8323 46.6075 30.9214 47.1554 31.084C47.6749 31.2374 51.5802 34.1559 55.8336 37.5698ZM40.3148 52.7366C38.6883 53.8891 35.0123 56.4699 32.145 58.4723L26.9328 62.1125V53.7885V45.4646L34.7962 40.0181L42.6596 34.5708L42.966 42.6056C43.2694 50.575 43.2471 50.6588 40.3148 52.7366ZM13.5924 41.4749L23.8889 46.1393V53.6285C23.8889 57.7481 23.547 61.1033 23.1279 61.0849C22.7089 61.0656 18.0294 59.3834 12.7279 57.3458L3.08891 53.641L2.79973 45.2266C2.64044 40.5981 2.68711 36.8112 2.90323 36.8112C3.12036 36.8112 7.92972 38.91 13.5924 41.4749ZM85.7815 37.3217C85.7815 37.6025 84.7648 41.034 83.5229 44.9474L81.2633 52.0627L71.6913 55.7583C66.4274 57.79 62.0269 59.3566 61.9133 59.2384C61.7986 59.1194 62.8315 55.5856 64.2084 51.3847L66.7115 43.7472L75.485 40.3576C84.6583 36.8138 85.7815 36.4827 85.7815 37.3217Z" fill="#353535"/>
</svg>
