<svg width="105" height="72" viewBox="0 0 105 72" fill="none" xmlns="http://www.w3.org/2000/svg">
<path d="M16.5342 0.864019C16.3451 1.27892 16.3919 1.57339 16.8008 2.67865C17.0679 3.40383 17.4239 4.55232 17.5972 5.2333C17.9614 6.67163 18.3589 9.31076 18.2063 9.37511C18.1524 9.37693 17.2645 8.80883 16.2102 8.08056C13.9279 6.48776 12.0172 5.49229 11.59 5.67246C11.1171 5.87193 10.9172 6.73126 11.1879 7.3083C11.3602 7.67551 11.9677 8.1524 13.3657 9.02896C15.4698 10.3199 16.9253 11.3188 18.2282 12.3821L19.0492 13.0413L18.391 12.9628C17.4149 12.8299 15.1744 12.183 13.8313 11.6184C12.3405 11.0114 11.9392 11.0131 11.6186 11.693C11.1088 12.7877 11.6822 13.4256 14.0059 14.2888C16.2288 15.1316 18.6196 15.6313 20.6363 15.7233C22.0653 15.7699 22.1357 15.803 22.9601 16.5864C23.435 17.0145 24.2934 17.9092 24.8984 18.5756L25.996 19.7465L24.6551 19.5371C22.981 19.2797 21.0982 18.7332 19.6684 18.1005C19.0748 17.8481 18.405 17.6279 18.2126 17.6463C17.6424 17.6773 17.304 18.5532 17.5712 19.2783C17.7469 19.7698 17.9521 19.9346 18.8588 20.3481C20.7731 21.1954 23.3386 21.8728 25.4128 22.0871C26.5191 22.186 27.5715 22.2868 27.7263 22.3052C27.9973 22.3376 29.1077 23.6916 30.0186 25.0878C30.4465 25.7661 30.4465 25.7661 30.0065 25.7632C29.7519 25.7658 28.9612 25.6385 28.2315 25.4855C27.0361 25.2356 26.2971 25.0237 23.3821 23.991C22.907 23.8353 22.3721 23.7467 22.2195 23.8111C21.8229 23.9784 21.589 24.7263 21.7366 25.3134C21.8255 25.7367 22.0389 25.919 22.8764 26.3408C24.9361 27.4201 29.2707 28.4405 31.3051 28.3364C31.8601 28.3118 32.009 28.3956 32.3631 28.9166C32.5729 29.247 32.9386 29.9096 33.1601 30.3818C33.5293 31.1686 33.5386 31.2275 33.1691 31.2577C32.9379 31.2714 32.3219 31.3218 31.7986 31.3749C30.5045 31.46 26.9454 32.7936 25.8327 33.5771C20.9972 37.0201 18.9339 43.0223 20.356 49.4813C20.8066 51.5325 22.2094 54.5226 23.5308 56.2485C24.8674 57.9678 27.0052 59.9148 28.7715 60.9921C33.6613 63.9359 39.992 64.0305 44.1116 61.2037C44.8005 60.7246 45.4143 60.3191 45.4296 60.3127C45.4601 60.2998 45.9137 61.072 46.4189 62.0319C47.9579 64.9227 49.6088 66.8447 52.1608 68.7007C55.4693 71.1175 59.1926 72.0815 63.3637 71.6627C65.349 71.4538 68.4376 70.1301 69.9072 68.8609C73.5634 65.7477 75.3844 61.0208 74.926 55.9147C74.7288 53.8195 74.2826 52.2063 73.2654 50.038C71.7969 46.908 69.4683 44.2036 66.813 42.5168C66.2242 42.1577 65.7515 41.8125 65.7656 41.7646C65.795 41.7104 66.302 41.3499 66.9088 40.9683L68.0003 40.2565L68.6043 40.6092C70.6674 41.8127 72.028 42.4537 73.4064 42.8987C75.7114 43.644 77.3245 43.9272 77.8737 43.6956C78.8195 43.2966 78.6619 41.7921 77.6179 41.4365C77.3375 41.3453 76.3897 41.1167 75.5275 40.9148C73.5473 40.4723 70.399 39.0982 70.5751 38.7725C70.6491 38.6575 71.4401 38.2401 72.3249 37.8669L73.942 37.1848L75.4796 38.0863C77.2765 39.1507 79.0782 39.8361 81.6426 40.472C83.7483 40.9873 84.2928 40.8624 84.4341 39.8392C84.5648 38.9881 83.9866 38.457 82.6915 38.2282C81.4046 38.017 78.6326 37.1334 77.584 36.6122L76.7548 36.2079L77.2124 36.0149C77.9447 35.706 81.5552 34.8324 81.7194 34.9098C81.798 34.9604 82.4888 35.3812 83.2817 35.8637C85.9347 37.4677 90.6903 38.918 91.7734 38.4611C92.2158 38.2745 92.4016 37.4631 92.1145 36.851C91.852 36.2915 91.852 36.2915 89.2888 35.6969C87.6499 35.3199 85.2734 34.5 85.3227 34.3325C85.3721 34.1651 89.3647 33.9892 91.7124 34.0463C93.6353 34.094 94.0741 34.0555 94.3594 33.7677C94.7197 33.4062 94.6801 32.8154 94.2605 32.1546C94.0823 31.8527 93.7081 31.7173 92.8411 31.6222C91.912 31.5114 89.0645 31.5185 87.3081 31.6309C86.6687 31.6702 88.9842 28.0753 90.6299 26.4804C91.171 25.9589 91.6652 25.4153 91.7381 25.2589C91.8885 24.8394 91.3833 23.8795 90.907 23.6824C90.3217 23.4475 89.8347 23.6948 88.7841 24.7663C87.1266 26.4918 85.8761 28.4227 84.9609 30.7567L84.5427 31.8129L83.6052 31.9569C83.0901 32.0276 82.0998 32.2149 81.4169 32.3563L80.1895 32.6226L80.3916 32.1185C80.7099 31.3558 82.2573 29.2788 83.3608 28.164C83.9008 27.6011 84.3715 27.0465 84.4068 26.9268C84.5267 26.5202 84.0238 25.6431 83.5147 25.376C82.9037 25.0473 82.1678 25.5043 80.799 27.0661C79.5124 28.5305 78.5448 30.0906 77.7049 32.0787L77.0459 33.6344L75.809 34.1142C73.8083 34.8743 73.7144 34.8301 74.357 33.2394C74.9338 31.7812 75.9027 29.9901 76.6529 28.9406C77.3515 27.9756 76.8806 26.5823 75.8212 26.5055C75.3801 26.4612 75.2146 26.6148 74.3822 27.7618C73.1118 29.5335 72.1522 31.6559 71.5373 33.9679L71.0506 35.8908L69.241 36.8636C67.6144 37.7591 66.2941 38.5674 65.4784 39.2047C65.1532 39.4466 65.1532 39.4466 65.1761 38.3267C65.1893 37.6928 65.0903 36.3521 64.9383 35.327C64.6565 33.5188 64.6132 33.3485 63.3909 30.7431C62.1685 28.1377 62.0642 27.9932 60.8365 26.5839C60.1353 25.7905 59.1433 24.8055 58.6296 24.3728C54.7995 21.2335 50.2327 19.9131 45.801 20.6722C43.9037 20.9907 41.0626 22.3356 39.5778 23.6113C38.2584 24.7333 36.6124 26.8729 36.0181 28.2547C35.7643 28.8434 35.499 29.2905 35.4368 29.2749C35.3817 29.2353 34.8729 28.4235 34.3372 27.4764C33.8168 26.523 32.9364 25.1138 32.4054 24.3324L31.4405 22.938L31.663 21.5036C32.0809 18.7719 31.7267 14.0827 31.013 12.5614C30.4551 11.3723 29.1623 11.2264 28.8297 12.3093C28.7733 12.5006 28.8608 13.4273 29.0339 14.3806C29.2901 15.8226 29.4751 18.8656 29.3736 19.9347C29.3641 20.1482 29.0076 19.8168 28.0978 18.7343L26.8209 17.2202L26.8392 15.9347C26.8425 14.111 26.4484 11.5961 25.8276 9.53287C24.8918 6.4086 24.3713 5.72748 23.2729 6.19077C22.5406 6.49963 22.4265 7.11332 22.9023 8.12751C23.5832 9.57886 24.6366 14.434 24.308 14.5516C24.2388 14.5599 23.378 13.8547 22.3648 12.9415L20.56 11.3148L20.4683 9.4055C20.3943 7.30018 19.8643 4.61223 19.1087 2.41737C18.5545 0.807813 18.1946 0.352192 17.452 0.288393C16.8407 0.232009 16.7879 0.275234 16.5342 0.864019ZM46.8322 23.065C47.5784 22.9806 49.0297 22.9969 50.0363 23.1169C51.5614 23.2905 52.2312 23.5107 54.0059 24.3332C55.7337 25.1335 56.3705 25.5561 57.4553 26.5439C58.1917 27.2177 59.138 28.222 59.5706 28.7936C60.6118 30.1558 61.9161 32.9361 62.2931 34.5576C62.6032 35.9977 62.7203 38.818 62.5074 39.7666L62.3557 40.4171L61.1451 40.1736C57.2022 39.365 53.1365 40.2421 49.9229 42.6239L49.4687 42.9411L48.9109 41.7521C47.3686 38.4647 44.986 35.7622 42.0245 33.8903C40.9091 33.1877 38.7051 32.1903 37.7959 31.9663C37.5238 31.8926 37.2892 31.7821 37.2482 31.6947C37.2072 31.6072 37.4269 30.9071 37.7605 30.138C38.4313 28.4517 39.7616 26.6128 41.0961 25.4844C42.4694 24.3606 44.9936 23.2749 46.8322 23.065ZM32.6584 33.9867C35.3277 33.6777 38.6065 34.4731 40.9722 36.0098C43.502 37.6239 45.2409 39.6554 46.6097 42.5342C48.8739 47.3603 48.5016 52.5654 45.6205 56.3571C44.0415 58.4056 42.2622 59.6378 39.8203 60.3536C35.5866 61.5738 30.445 60.1187 26.9705 56.7247C25.0028 54.7897 23.2657 51.7102 22.6522 49.0783C21.7052 44.9953 22.8421 40.3684 25.5092 37.4839C27.1503 35.7234 30.1194 34.2616 32.6584 33.9867ZM56.3193 42.8584C60.7897 42.1039 65.4067 43.8431 68.8752 47.5748C69.9411 48.7171 70.0783 48.9316 71.1201 51.1523C72.1362 53.2792 72.2627 53.6657 72.472 55.0856C72.7876 57.2775 72.6082 59.4269 71.9607 61.3966C71.3062 63.3903 70.5546 64.6708 69.2188 66.0302C64.7241 70.6282 57.4911 70.558 52.0813 65.8437C50.5709 64.5327 49.2883 62.8115 48.3777 60.8706C47.4917 58.9821 47.3781 58.5063 47.6939 58.2056C48.2573 57.6537 49.5046 55.0539 49.9396 53.488C50.4732 51.5872 50.6092 49.54 50.3721 47.3987L50.2086 45.9595L51.0161 45.3047C52.2157 44.317 52.2533 44.2802 53.6943 43.6514C54.4266 43.3426 55.6047 42.9713 56.3193 42.8584Z" fill="#363636"/>
<path d="M48.795 31.448C48.5361 32.508 49.3073 33.2106 50.7167 33.2076C51.2486 33.21 51.7297 33.2384 51.8202 33.2765C51.8913 33.3035 52.0003 33.9014 52.0537 34.5911C52.1071 35.2808 52.2121 35.9862 52.28 36.1624C52.4701 36.6557 53.2332 36.9829 53.6894 36.7498C54.171 36.5039 54.2145 36.1443 54.0103 34.1188C53.8755 32.6273 53.8687 32.6097 54.4458 31.7456C54.7621 31.2677 55.0446 30.7017 55.0722 30.4979C55.1627 29.9455 54.7441 29.2527 54.195 29.0481L53.7103 28.8529L53.1948 29.6012C52.4186 30.7357 52.3298 30.7811 50.906 30.7071C49.373 30.6256 48.9598 30.7734 48.795 31.448Z" fill="#363636"/>
<path d="M28.2712 48.3337C28.2067 48.5987 28.2188 49.4569 28.3067 50.2762C28.487 52.1234 28.4938 52.141 27.9035 52.8863C27.2704 53.7168 27.1522 54.1569 27.4092 54.8263C27.8556 55.9889 28.6835 55.9019 29.4658 54.5943L29.9339 53.8062L31.4593 53.8043C32.3395 53.7748 33.0713 53.6737 33.1579 53.545C33.3505 53.2987 33.3861 52.2895 33.2306 51.8844C33.0818 51.4968 32.5416 51.3099 31.5713 51.3013C31.0735 51.3035 30.5874 51.2575 30.4972 51.2194C30.4196 51.1749 30.2839 50.5065 30.2154 49.6984L30.0762 48.2729L29.641 47.9267C29.0955 47.4896 28.4295 47.6834 28.2712 48.3337Z" fill="#363636"/>
<path d="M61.7513 53.8065C61.7002 54.0613 61.7149 54.7603 61.7841 55.3689C61.8657 55.9711 61.896 56.5166 61.8539 56.6006C61.8118 56.6845 61.2935 56.7641 60.6983 56.7585C59.7211 56.7623 59.5715 56.7977 59.3478 57.1828C59.1959 57.4064 59.1046 57.8274 59.1487 58.1372C59.2487 59.0209 59.8318 59.3444 61.3919 59.3525L62.7518 59.3804L63.5091 60.2378C64.5295 61.3962 65.1199 61.4666 65.4058 60.4676C65.5862 59.8137 65.3617 59.2643 64.554 58.3913L63.8936 57.6711L63.7025 55.733C63.5338 53.9704 63.4857 53.7665 63.1646 53.3914C62.6895 52.8461 61.9052 53.0832 61.7513 53.8065Z" fill="#363636"/>
</svg>
