<svg width="66" height="66" viewBox="0 0 66 66" fill="none" xmlns="http://www.w3.org/2000/svg">
<g clip-path="url(#clip0_1_164)">
<path d="M60.555 30.415C62.2875 28.0225 63.25 25.08 63.25 22C63.25 14.9875 58.1075 8.99248 51.81 8.30498C52.0575 8.11248 52.305 7.89248 52.5525 7.67248C54.285 5.93998 54.835 3.51998 55 1.84248C55.11 0.797477 54.2025 -0.110024 53.1575 -2.35923e-05C51.48 0.164976 49.06 0.742476 47.3275 2.44748C46.5575 3.21748 46.0075 4.15248 45.6225 5.08748C43.8625 1.86998 40.6725 0.247476 40.48 0.137476C39.82 -0.192524 38.995 0.0824764 38.6375 0.742476C38.3075 1.42998 38.555 2.25498 39.2425 2.58498C39.27 2.58498 43.0375 4.56498 43.835 8.22248H40.095C37.565 8.22248 35.0625 9.10248 32.945 10.6975C31.2125 9.37748 29.1775 8.52498 27.005 8.30498C27.2525 8.11248 27.5 7.89248 27.7475 7.67248C29.48 5.93998 30.03 3.51998 30.195 1.84248C30.305 0.797477 29.3975 -0.110024 28.3525 -2.35923e-05C26.675 0.164976 24.255 0.742476 22.5225 2.44748C21.7525 3.21748 21.2025 4.15248 20.8175 5.08748C19.1125 1.86998 15.9225 0.247476 15.73 0.137476C15.07 -0.192524 14.245 0.0824764 13.8875 0.742476C13.5575 1.42998 13.805 2.25498 14.4925 2.58498C14.52 2.58498 18.2875 4.56498 19.085 8.22248H15.345C8.525 8.24998 2.75 14.5475 2.75 22C2.75 25.0525 3.7125 27.995 5.445 30.415C2.3375 31.075 0 33.8525 0 37.125V53.625C0 60.445 5.555 66 12.375 66H53.625C60.445 66 66 60.445 66 53.625V37.125C66 33.825 63.6625 31.075 60.555 30.415ZM50.6275 11C55.99 11 60.5 16.0325 60.5 22C60.5 25.1075 59.235 28.1325 57.09 30.25H35.9425C37.5925 27.885 38.5275 24.9975 38.5275 22C38.5275 18.425 37.18 15.0975 35.0625 12.6225C36.6025 11.55 38.3625 11 40.1775 11H50.6825H50.6275ZM15.3725 11H25.8775C31.24 11 35.75 16.0325 35.75 22C35.75 25.135 34.5125 28.1325 32.34 30.25H8.91C6.7375 28.1325 5.5 25.135 5.5 22C5.5 16.0325 10.01 11 15.3725 11ZM63.25 53.625C63.25 58.9325 58.9325 63.25 53.625 63.25H12.375C7.535 63.25 3.52 59.6475 2.86 55H53.625C54.395 55 55 54.395 55 53.625C55 52.855 54.395 52.25 53.625 52.25H2.75V44H53.625C54.395 44 55 43.395 55 42.625C55 41.855 54.395 41.25 53.625 41.25H2.75V37.125C2.75 34.8425 4.5925 33 6.875 33H59.125C61.4075 33 63.25 34.8425 63.25 37.125V53.625Z" fill="#353535"/>
</g>
<defs>
<clipPath id="clip0_1_164">
<rect width="66" height="66" fill="white"/>
</clipPath>
</defs>
</svg>
