<svg width="59" height="85" viewBox="0 0 59 85" fill="none" xmlns="http://www.w3.org/2000/svg">
<g clip-path="url(#clip0_202_18)">
<path d="M24.178 84.8236H5.82283C4.54979 84.8236 3.32889 84.3873 2.42872 83.6107C1.52854 82.8341 1.02283 81.7807 1.02283 80.6824V39.3452C1.02082 37.0325 1.91425 34.7856 3.56129 32.961C5.20834 31.1363 7.51461 29.8386 10.114 29.2739C10.3365 29.24 10.5656 29.2802 10.7551 29.3863C10.9446 29.4924 11.0805 29.6565 11.1353 29.8456C11.1901 30.0347 11.1597 30.2347 11.0504 30.4052C10.941 30.5758 10.7608 30.7042 10.546 30.7647C8.33064 31.2449 6.36487 32.3502 4.96115 33.9049C3.55744 35.4596 2.79634 37.3745 2.79883 39.3452V80.6824C2.79883 81.3832 3.12148 82.0552 3.69579 82.5507C4.2701 83.0461 5.04903 83.3245 5.86123 83.3245H24.178C24.9902 83.3245 25.7692 83.0461 26.3435 82.5507C26.9178 82.0552 27.2404 81.3832 27.2404 80.6824V39.3452C27.2303 37.3243 26.4235 35.3665 24.9528 33.7936C23.4821 32.2207 21.4348 31.1263 19.1476 30.6901C18.936 30.6321 18.757 30.5082 18.6456 30.3424C18.5342 30.1767 18.4984 29.9811 18.5452 29.7938C18.592 29.6065 18.718 29.441 18.8986 29.3295C19.0792 29.2181 19.3015 29.1687 19.522 29.191C22.2047 29.7038 24.6057 30.9882 26.3309 32.8333C28.0561 34.6784 29.0031 36.9746 29.0164 39.3452V80.6824C29.0165 81.2291 28.891 81.7703 28.6474 82.2749C28.4038 82.7795 28.0468 83.2375 27.597 83.6225C27.1472 84.0074 26.6135 84.3118 26.0267 84.5179C25.4399 84.7241 24.8116 84.828 24.178 84.8236Z" fill="#CACACA"/>
<path d="M28.7376 72.4746H16.2576C15.7174 72.4823 15.1809 72.3971 14.6793 72.2241C14.1776 72.051 13.721 71.7936 13.3358 71.4667C12.9507 71.1399 12.6449 70.7501 12.4361 70.3202C12.2274 69.8904 12.1199 69.4289 12.12 68.9628V46.2278C12.12 45.2964 12.5488 44.4032 13.3122 43.7446C14.0755 43.086 15.1109 42.7161 16.1904 42.7161H28.6704L28.7376 72.4746ZM16.2288 44.24C15.6203 44.24 15.0367 44.4486 14.6064 44.8198C14.1761 45.191 13.9344 45.6945 13.9344 46.2195V68.9628C13.9344 69.4878 14.1761 69.9913 14.6064 70.3626C15.0367 70.7338 15.6203 70.9423 16.2288 70.9423H26.9616V44.24H16.2288Z" fill="#CACACA"/>
<path d="M19.1564 30.7646C19.0396 30.7657 18.9237 30.7468 18.8154 30.709C18.7072 30.6712 18.6087 30.6153 18.5256 30.5444C18.4426 30.4736 18.3767 30.3892 18.3317 30.2962C18.2867 30.2032 18.2636 30.1034 18.2636 30.0027V17.1899C18.2506 17.0826 18.2639 16.9741 18.3027 16.8715C18.3414 16.769 18.4047 16.6746 18.4884 16.5944C18.5721 16.5143 18.6744 16.4502 18.7886 16.4064C18.9029 16.3625 19.0265 16.3398 19.1516 16.3398C19.2766 16.3398 19.4002 16.3625 19.5145 16.4064C19.6287 16.4502 19.731 16.5143 19.8147 16.5944C19.8985 16.6746 19.9617 16.769 20.0005 16.8715C20.0392 16.9741 20.0525 17.0826 20.0396 17.1899V30.0027C20.0396 30.2048 19.9465 30.3986 19.7809 30.5415C19.6152 30.6844 19.3906 30.7646 19.1564 30.7646Z" fill="#CACACA"/>
<path d="M10.8433 30.7646C10.6091 30.7646 10.3844 30.6844 10.2188 30.5415C10.0532 30.3986 9.96012 30.2048 9.96012 30.0027V17.1899C9.94717 17.0826 9.9605 16.9741 9.99922 16.8715C10.038 16.769 10.1012 16.6746 10.1849 16.5944C10.2687 16.5143 10.3709 16.4502 10.4852 16.4064C10.5994 16.3625 10.7231 16.3398 10.8481 16.3398C10.9732 16.3398 11.0968 16.3625 11.2111 16.4064C11.3253 16.4502 11.4276 16.5143 11.5113 16.5944C11.595 16.6746 11.6583 16.769 11.697 16.8715C11.7358 16.9741 11.7491 17.0826 11.7361 17.1899V30.0027C11.7361 30.1034 11.713 30.2032 11.668 30.2962C11.623 30.3892 11.5571 30.4736 11.4741 30.5444C11.391 30.6153 11.2925 30.6712 11.1843 30.709C11.076 30.7468 10.9601 30.7657 10.8433 30.7646Z" fill="#CACACA"/>
<path d="M20.04 17.3638H9.96002V4.16998C9.96255 3.59513 10.2284 3.04446 10.6995 2.63798C11.1706 2.2315 11.8089 2.00218 12.4752 2H17.5248C18.1911 2.00218 18.8294 2.2315 19.3005 2.63798C19.7717 3.04446 20.0375 3.59513 20.04 4.16998V17.3638ZM11.736 15.8315H18.264V4.16998C18.2615 4.0015 18.1829 3.84054 18.0448 3.7214C17.9067 3.60226 17.7201 3.53438 17.5248 3.53224H12.4752C12.2799 3.53438 12.0934 3.60226 11.9553 3.7214C11.8172 3.84054 11.7385 4.0015 11.736 4.16998V15.8315Z" fill="#CACACA"/>
</g>
<path d="M56.5378 36.1179C55.0623 34.0923 53.0459 32.5158 50.6767 31.5284V21.9641C51.6441 21.929 52.4202 21.1793 52.4202 20.2604V17.6221C52.4202 16.6808 51.6065 15.915 50.6064 15.915H39.3938C38.3937 15.915 37.58 16.6808 37.58 17.6221V20.2604C37.58 21.0944 38.2192 21.7895 39.0605 21.9373V31.6285C34.1421 33.8194 31 38.4251 31 43.5299V80.9667C31 83.117 32.8587 84.8664 35.1435 84.8664H54.8566C57.1413 84.8664 59 83.117 59 80.9667V43.6123C59 40.9209 58.1485 38.3294 56.5378 36.1179ZM39.5587 17.7773H50.4415V20.1052H39.5587V17.7773ZM57.0213 80.9667C57.0213 82.1092 56.0705 83.0041 54.8566 83.0041H35.1435C33.9295 83.0041 32.9787 82.1092 32.9787 80.9667V43.5299C32.9787 38.971 35.904 34.8739 40.4315 33.0919L41.0392 32.8527V21.9675H48.698V32.7891L49.3312 33.0191C54.0027 34.7161 57.0213 38.8742 57.0213 43.6123V80.9667Z" fill="#CACACA"/>
<defs>
<clipPath id="clip0_202_18">
<rect width="30" height="85" fill="white"/>
</clipPath>
</defs>
</svg>
