<svg width="81" height="88" viewBox="0 0 81 88" fill="none" xmlns="http://www.w3.org/2000/svg">
<path d="M69.2176 35.4482C68.077 34.7101 66.7097 34.386 65.3598 34.5338C65.5604 33.7443 65.5735 32.9181 65.3982 32.1173C65.1015 30.7346 64.2566 29.5133 63.0472 28.7191C61.9276 27.9757 60.568 27.6635 59.2374 27.8442C59.4044 26.7646 59.2496 25.6563 58.7913 24.6499C58.3329 23.6435 57.5901 22.7809 56.6503 22.1636C55.5669 21.4519 54.2761 21.1071 52.9812 21.1836L60.6008 9.95616C61.3733 8.80238 61.6432 7.39285 61.3523 6.03167C61.0613 4.6705 60.2329 3.46678 59.0458 2.68022C58.457 2.29228 57.7971 2.01974 57.1037 1.87819C56.4104 1.73664 55.6972 1.72885 55.0049 1.85527C53.5991 2.11931 52.3664 2.91466 51.576 4.06764L33.2969 30.9093C31.6868 27.5318 29.1745 24.6252 26.0251 22.4963C24.6404 21.4278 23.0524 20.6382 21.356 20.1746C19.6597 19.711 17.8897 19.5829 16.152 19.7981C15.3903 19.8772 14.6696 20.1615 14.0711 20.6191C13.4726 21.0767 13.0199 21.6895 12.764 22.3884C12.4298 23.51 12.4073 24.7019 12.6991 25.8439C12.9908 26.9859 13.5862 28.0375 14.4254 28.8927C18.4431 33.1683 21.0149 38.5296 21.7859 44.2368C22.0481 46.2171 22.0757 48.2166 21.8681 50.196C21.367 50.1142 20.8565 50.1147 20.3581 50.1974C19.2968 50.396 18.3661 50.9962 17.7697 51.8665L12.4912 59.569C11.8937 60.4379 11.6794 61.5069 11.8954 62.5413C12.1114 63.5756 12.74 64.4906 13.6431 65.0852L39.3925 81.9886C40.2994 82.5795 41.4044 82.8021 42.467 82.6078C43.5295 82.4136 44.4637 81.8182 45.066 80.9514L50.3445 73.2489C50.6366 72.8186 50.8364 72.3347 50.9321 71.8255C51.0279 71.3163 51.0177 70.792 50.902 70.2836C50.7622 69.6073 50.445 68.975 49.9814 68.4484L52.7815 66.0722C56.4719 62.9495 59.7164 59.363 62.4319 55.4048L70.8001 43.2048C71.6408 41.9824 71.9422 40.4782 71.638 39.0229C71.3339 37.5676 70.4491 36.2804 69.1782 35.4442L69.2176 35.4482ZM48.4131 71.9936L43.1196 79.6869C42.9936 79.8753 42.8298 80.0368 42.6377 80.1619C42.4456 80.2871 42.2292 80.3733 42.001 80.4155C41.7729 80.4578 41.5377 80.4552 41.3092 80.408C41.0806 80.3608 40.8634 80.2699 40.6703 80.1406L14.9209 63.2373C14.7263 63.1109 14.5588 62.9487 14.428 62.7601C14.2972 62.5715 14.2057 62.3602 14.1588 62.1384C14.1119 61.9165 14.1105 61.6885 14.1546 61.4675C14.1988 61.2465 14.2877 61.0369 14.4162 60.8506L19.7132 53.1191C19.9709 52.75 20.3675 52.4945 20.8195 52.4062C21.0496 52.3607 21.2876 52.3612 21.519 52.4078C21.7504 52.4544 21.9704 52.5461 22.1655 52.6773L43.4774 66.7075L47.9114 69.6188C48.3012 69.8702 48.5755 70.2595 48.6744 70.7019C48.7664 71.1517 48.6725 71.6159 48.4131 71.9936ZM69.3994 39.4518C69.4911 39.8805 69.4946 40.3212 69.4097 40.7486C69.3249 41.176 69.1535 41.5815 68.9053 41.9417L60.5249 54.1443C57.9233 57.9394 54.8151 61.3789 51.2801 64.3748L48.0912 67.047L36.9945 59.7464L24.0955 51.3C24.431 48.9315 24.4388 46.5253 24.1187 44.1451C23.2973 37.9527 20.5373 32.1267 16.2136 27.4587C15.6585 26.9094 15.256 26.2328 15.0446 25.494C14.8332 24.7552 14.8201 23.9789 15.0065 23.2396C15.1176 22.9221 15.3226 22.6445 15.5962 22.4414C15.8697 22.2382 16.1998 22.1183 16.5455 22.0964C17.997 21.9052 19.4781 22.009 20.8954 22.4011C22.3127 22.7932 23.6355 23.4652 24.7803 24.3746C30.7907 28.5553 31.9209 33.6145 31.9324 33.662C31.9754 33.8821 32.0851 34.0857 32.2475 34.2464C32.4099 34.4071 32.6174 34.5176 32.8432 34.5635C33.0648 34.6049 33.293 34.5831 33.5002 34.5007C33.7073 34.4184 33.8845 34.279 34.0101 34.0995L53.4825 5.37817C53.7058 5.05228 53.9937 4.77336 54.3299 4.55737C54.666 4.34137 55.0437 4.19255 55.4413 4.11942C55.8369 4.04392 56.2452 4.04583 56.6425 4.12505C57.0397 4.20427 57.418 4.35921 57.7553 4.58085C58.4364 5.02587 58.9129 5.71185 59.0806 6.48913C59.2484 7.26641 59.094 8.07191 58.6509 8.72988L46.418 26.8175C46.2785 27.064 46.2403 27.3538 46.3108 27.6295C46.3814 27.9052 46.5556 28.1467 46.799 28.3061C47.0423 28.4656 47.337 28.5312 47.6247 28.4902C47.9124 28.4492 48.1721 28.3044 48.3523 28.0846L50.4975 24.9638C50.7537 24.5906 51.0838 24.2713 51.469 24.0239C51.8542 23.7766 52.2869 23.6061 52.7425 23.5223C53.1981 23.4385 53.6676 23.4429 54.1242 23.5353C54.5809 23.6277 55.0156 23.8064 55.4038 24.061C55.7919 24.3156 56.1257 24.6412 56.3863 25.0193C56.6468 25.3973 56.8289 25.8204 56.9222 26.2643C57.0155 26.7082 57.0182 27.1643 56.93 27.6065C56.8418 28.0487 56.6646 28.4684 56.4084 28.8416L53.5777 32.9837C53.407 33.2307 53.3454 33.5349 53.4063 33.8295C53.4673 34.124 53.6459 34.3848 53.9027 34.5544C54.1596 34.724 54.4738 34.7885 54.7761 34.7338C55.0784 34.6791 55.3441 34.5096 55.5148 34.2627L57.4909 31.3406C57.7177 31.0096 58.0102 30.7263 58.3515 30.5068C58.6929 30.2874 59.0765 30.1362 59.4804 30.0617C59.8843 29.9873 60.3005 29.9912 60.7053 30.0732C61.1101 30.1551 61.4955 30.3136 61.8395 30.5394C62.1832 30.764 62.4788 31.0515 62.7096 31.3856C62.9403 31.7197 63.1016 32.0938 63.1842 32.4863C63.2667 32.8789 63.2689 33.2822 63.1907 33.6732C63.1124 34.0642 62.9552 34.4352 62.7281 34.7648L61.2928 36.8589L59.8082 39.0136C59.6481 39.2676 59.5983 39.5742 59.6696 39.867C59.741 40.1598 59.9277 40.4154 60.1894 40.5784C60.4511 40.7375 60.7654 40.7907 61.0638 40.7263C61.3622 40.6619 61.6205 40.4852 61.7824 40.2346L63.2763 38.0655C63.6505 37.5231 64.1836 37.1031 64.8081 36.8586C65.4326 36.6141 66.1206 36.556 66.785 36.6916C67.4495 36.8273 68.0607 37.1507 68.5414 37.6208C69.0221 38.091 69.3507 38.6869 69.4858 39.3333L69.3994 39.4518Z" fill="#CACACA"/>
</svg>
