<svg width="71" height="83" viewBox="0 0 71 83" fill="none" xmlns="http://www.w3.org/2000/svg">
<path d="M49.1046 28.6302C49.1046 21.5267 43.0242 15.8122 35.498 15.8122C27.97 15.8122 21.8877 21.5267 21.8877 28.6302C21.8877 35.7341 27.9703 41.4347 35.498 41.4347C43.0221 41.4347 49.1046 35.734 49.1046 28.6302ZM18.8846 28.6302C18.8846 20.0367 26.3247 12.9991 35.498 12.9991C44.6696 12.9991 52.1186 20.0368 52.1186 28.6302C52.1186 37.2268 44.6698 44.2478 35.498 44.2478C26.3244 44.2478 18.8846 37.2269 18.8846 28.6302Z" fill="#CACACA" stroke="black" stroke-width="0.4"/>
<path d="M16.4316 50.1255L16.6079 50.3648C18.2877 52.6459 20.4742 53.7165 23.5592 53.7599L23.5595 53.7599C26.4334 53.8048 28.7953 54.7215 30.9515 55.7908M16.4316 50.1255L16.0512 69.4348M16.4316 50.1255L16.2763 50.3788L4.69306 69.2719L4.48233 69.6156L4.8835 69.5755L14.5195 68.6104C14.5196 68.6104 14.5197 68.6104 14.5198 68.6104C15.1763 68.5481 15.7887 68.8804 16.0511 69.4346L16.0512 69.4348M16.4316 50.1255L16.0512 69.4348M30.9515 55.7908L30.8627 55.97L30.9513 55.7907C30.9514 55.7908 30.9515 55.7908 30.9515 55.7908ZM30.9515 55.7908C31.6574 56.1398 32.3339 56.4095 33.001 56.6204L33.2447 56.6975L33.1112 56.9155L20.3328 77.7831L20.1394 78.0989L19.9814 77.764L16.0512 69.4348M20.1623 77.6786L19.9917 77.5742L20.0602 77.4623L20.1623 77.6786ZM20.1623 77.6786L20.3431 77.5933L20.2872 77.4746L20.1623 77.6786ZM32.9407 56.8111L32.8331 56.9868C32.8489 56.9918 32.8646 56.9968 32.8804 57.0018L32.9407 56.8111ZM32.9407 56.8111L32.7701 56.7067L32.745 56.7476C32.8103 56.7694 32.8755 56.7905 32.9407 56.8111ZM57.8026 14.1122L57.8027 14.1126C58.3035 17.0128 59.4151 19.367 61.5191 21.8029L57.8026 14.1122ZM57.8026 14.1122C57.5716 12.7886 57.1012 11.8298 56.3976 11.1186C55.6963 10.4098 54.7796 9.96367 53.6859 9.63577C50.5077 8.68182 48.2888 7.17064 46.0949 5.04685C45.1426 4.12156 43.5725 2.88625 41.6796 3.18827L41.6794 3.18831L41.5571 3.20798C37.0416 3.93389 35.1586 4.23659 30.9351 3.3835C29.8154 3.15439 28.7912 3.06429 27.8022 3.28953C26.8087 3.51579 25.8702 4.05556 24.9124 5.05168L24.9124 5.0517C22.8116 7.2373 20.509 8.68046 17.3263 9.63577L17.3262 9.63581C16.2334 9.96455 15.3167 10.4111 14.6153 11.1199C13.9115 11.831 13.4406 12.7894 13.2096 14.1122L13.2095 14.1126C12.7087 17.0129 11.597 19.3671 9.48583 21.8029L9.48563 21.8032C8.76352 22.6389 8.24244 23.4777 8.05532 24.4297C7.86752 25.3851 8.02109 26.4282 8.59818 27.6631C9.85155 30.3632 10.2788 32.9016 9.90599 36.025C9.77652 37.0993 9.82103 38.0682 10.2125 38.9611C10.6046 39.8556 11.334 40.6492 12.528 41.3943L12.5282 41.3944C15.1412 43.0205 16.9672 44.9602 18.4564 47.77C18.9678 48.7369 19.5656 49.5296 20.408 50.0838C21.2515 50.6388 22.3209 50.942 23.7534 50.9654C26.8876 51.0177 29.6509 51.5864 32.4135 53.3238C33.5896 54.0637 34.6528 54.3325 35.6714 54.2768C36.6852 54.2214 37.6354 53.8454 38.5873 53.3304L38.5875 53.3303C41.4867 51.7588 44.1345 51.0175 47.2588 50.9654C48.6913 50.942 49.7606 50.6388 50.6042 50.0838C51.4466 49.5296 52.0444 48.7369 52.5558 47.77C54.0449 44.9602 55.8709 43.0205 58.4857 41.3944L58.486 41.3943M57.8026 14.1122L58.486 41.3943M58.486 41.3943C59.6791 40.65 60.408 39.8568 60.7999 38.9623C61.1912 38.0695 61.2357 37.1001 61.1062 36.025C60.7333 32.9017 61.1606 30.3633 62.414 27.6632M58.486 41.3943L62.414 27.6632M62.414 27.6632C62.9911 26.4282 63.1443 25.385 62.9552 24.4294M62.414 27.6632L62.9552 24.4294M62.9552 24.4294C62.7669 23.4775 62.2441 22.6388 61.5194 21.8032L62.9552 24.4294ZM54.7287 50.3789L54.5734 50.1256L54.3971 50.3647C52.7173 52.6443 50.5325 53.7149 47.4475 53.7599L47.4472 53.7599C44.577 53.8064 42.1678 54.6408 40.0485 55.7943L40.0483 55.7944C39.3445 56.1782 38.6723 56.4471 38.0232 56.6546L37.7805 56.7322L37.9136 56.9495L50.6739 77.7848L50.8674 78.1006L51.0254 77.7656L54.9535 69.4371C54.9536 69.4369 54.9537 69.4366 54.9538 69.4364C55.2183 68.8831 55.8294 68.5499 56.4851 68.6121C56.4852 68.6121 56.4853 68.6121 56.4854 68.6121L66.1215 69.5772L66.5226 69.6173L66.3119 69.2736L54.7287 50.3789ZM16.286 7.0045L16.2864 7.00438C18.5824 6.23664 20.8424 5.09089 22.753 3.08568C24.6302 1.13339 26.6584 0.141717 29.0426 0.202649C29.841 0.227586 30.6883 0.368696 31.5867 0.639407L31.5875 0.639628C33.4123 1.18179 35.251 1.14061 37.0117 0.943386C37.7453 0.861209 38.4692 0.751405 39.173 0.644652C39.3132 0.623374 39.4527 0.602216 39.5913 0.581423C40.4277 0.45595 41.2327 0.343602 42.002 0.294073L42.0023 0.294057C44.3872 0.137604 46.375 1.13505 48.2484 3.0892C50.1679 5.09247 52.4277 6.23994 54.7222 7.00776L54.7226 7.00792C56.5288 7.60732 57.8878 8.41117 58.866 9.47345C59.8428 10.5342 60.4521 11.866 60.7375 13.543L60.7376 13.5435C61.1967 16.1999 62.4416 18.3109 63.929 20.1139L63.9292 20.1142C65.1031 21.5326 65.7827 22.8988 65.9942 24.2872C66.2055 25.6742 65.9527 27.1034 65.2273 28.6544L65.2272 28.6545C64.0726 31.1267 63.8927 33.5127 64.1026 35.8089L64.1026 35.8095C64.2725 37.6021 64.0572 39.0944 63.4342 40.3685C62.8114 41.6423 61.7723 42.716 60.2638 43.6563L60.2631 43.6568C58.6197 44.6914 57.3995 45.9229 56.4172 47.2588L56.3375 47.3672L56.4079 47.4819L70.5909 70.5923L70.5916 70.5935C71.2008 71.5715 70.3783 72.8326 69.1185 72.6949L69.1167 72.6947L57.3999 71.5206L57.2593 71.5065L57.199 71.6344L52.4228 81.7718C52.4227 81.772 52.4226 81.7722 52.4224 81.7724C51.9195 82.8148 50.3709 82.8974 49.7469 81.9058C49.7468 81.9055 49.7466 81.9053 49.7465 81.9051L35.6712 58.9579L35.5006 58.6798L35.3301 58.958L21.2717 81.907L21.2714 81.9075C20.6581 82.9151 19.0831 82.8335 18.5868 81.7737L18.5865 81.7732L13.8005 71.6342L13.7402 71.5065L13.5997 71.5206L1.88462 72.6947L1.8831 72.6949C0.620149 72.8312 -0.202162 71.5708 0.409542 70.5939L0.410519 70.5923L14.5899 47.4683L14.6604 47.3533L14.5803 47.2449C13.6005 45.9184 12.3876 44.6797 10.7449 43.653L10.7447 43.6529C9.23536 42.7125 8.19579 41.6393 7.57206 40.3656C6.94822 39.0918 6.73153 37.5995 6.89874 35.8061C7.11775 33.5093 6.93774 31.1249 5.78134 28.651L5.7813 28.6509C5.05492 27.0991 4.80219 25.6699 5.01367 24.2832C5.22537 22.895 5.90538 21.5293 7.07937 20.1108L7.0795 20.1106C8.5688 18.3075 9.81188 16.1964 10.2709 13.5401L10.271 13.5397C10.5573 11.8627 11.1667 10.5313 12.1433 9.47069C13.1212 8.4086 14.4798 7.60475 16.286 7.0045Z" fill="#CACACA" stroke="black" stroke-width="0.4"/>
</svg>
