<svg width="77" height="84" viewBox="0 0 77 84" fill="none" xmlns="http://www.w3.org/2000/svg">
<path d="M48.5863 33.7676L40.0489 41.8084C39.1744 41.3199 38.1517 41.0127 37.0549 41.0127C33.7792 41.0127 31.1261 43.5115 31.1261 46.5967C31.1261 49.6818 33.7792 52.1806 37.0549 52.1806C40.3305 52.1806 42.9836 49.6818 42.9836 46.5967C42.9836 45.5636 42.6576 44.6144 42.1388 43.7768L50.6762 35.7359C51.2543 35.1915 51.2543 34.312 50.6762 33.7676C50.0982 33.2232 49.1644 33.2232 48.5863 33.7676ZM37.0549 49.3886C35.4244 49.3886 34.0905 48.1322 34.0905 46.5967C34.0905 45.0611 35.4244 43.8047 37.0549 43.8047C38.6853 43.8047 40.0192 45.0611 40.0192 46.5967C40.0192 48.1322 38.6853 49.3886 37.0549 49.3886ZM72.5831 56.4523C73.5761 53.2415 74.1097 49.9331 74.1097 46.5967C74.1097 29.2586 60.6069 14.8241 42.9836 12.1439V8.90518H44.4658C46.0962 8.90518 47.4302 7.6488 47.4302 6.11322V3.32126C47.4302 1.78568 46.0962 0.529297 44.4658 0.529297H29.6439C28.0135 0.529297 26.6795 1.78568 26.6795 3.32126V6.11322C26.6795 7.6488 28.0135 8.90518 29.6439 8.90518H31.1261V12.1439C13.5028 14.8241 0 29.2446 0 46.5967C0 65.8472 16.6154 81.4962 37.0549 81.4962C42.0202 81.4962 46.8077 80.5748 51.3432 78.774C54.0408 81.5799 57.9242 83.3528 62.2522 83.3528C70.3894 83.3528 77 77.1268 77 69.4628C77 65.4284 75.0287 60.724 72.5831 56.4383V56.4523ZM29.6439 3.32126H44.4658V6.11322H41.5014H29.6439V3.32126ZM34.0905 8.90518H40.0192V11.8228C39.041 11.753 38.0479 11.6971 37.0549 11.6971C36.0618 11.6971 35.0687 11.739 34.0905 11.8228V8.90518ZM37.0549 78.7042C18.2606 78.7042 2.96439 64.2977 2.96439 46.5967C2.96439 28.8956 18.2606 14.4891 37.0549 14.4891C55.8491 14.4891 71.1453 28.8956 71.1453 46.5967C71.1453 48.7325 70.8934 50.8544 70.4487 52.9484C69.6335 51.692 68.8035 50.5194 68.0327 49.4445C68.1217 48.5231 68.1809 47.5738 68.1809 46.5967C68.1809 30.4312 54.2187 17.2811 37.0549 17.2811C19.891 17.2811 5.92878 30.4312 5.92878 46.5967C5.92878 62.7621 19.891 75.9123 37.0549 75.9123C40.9679 75.9123 44.7475 75.2422 48.3047 73.93C48.6308 74.8234 49.0458 75.661 49.5349 76.4706C45.5627 77.9504 41.3829 78.7042 37.0549 78.7042ZM47.5043 69.4768C47.5043 70.0491 47.5488 70.5936 47.6229 71.152C44.7326 72.2687 41.6941 72.9109 38.5371 73.0505V70.3283C38.5371 69.5605 37.8701 68.9323 37.0549 68.9323C36.2397 68.9323 35.5727 69.5605 35.5727 70.3283V73.0505C21.225 72.3385 9.7232 61.5057 8.96728 47.9926H11.8576C12.6728 47.9926 13.3398 47.3644 13.3398 46.5967C13.3398 45.8289 12.6728 45.2007 11.8576 45.2007H8.96728C9.7232 31.6876 21.225 20.8548 35.5727 20.1428V22.865C35.5727 23.6328 36.2397 24.261 37.0549 24.261C37.8701 24.261 38.5371 23.6328 38.5371 22.865V20.1428C53.0626 20.8548 64.683 31.9668 65.1721 45.7172C64.179 44.5027 63.512 43.7209 63.3935 43.5953C62.8302 42.9531 61.6741 42.9531 61.1109 43.5953C60.5625 44.2235 47.5043 59.0907 47.5043 69.4768ZM62.2522 80.5748C55.7602 80.5748 50.4687 75.5912 50.4687 69.4768C50.4687 61.7849 59.0951 50.5752 62.2522 46.7363C65.4092 50.5752 74.0356 61.771 74.0356 69.4768C74.0356 75.5912 68.7442 80.5748 62.2522 80.5748Z" fill="#CACACA"/>
</svg>
