<svg width="215" height="203" viewBox="0 0 215 203" fill="none" xmlns="http://www.w3.org/2000/svg">
<ellipse cx="107.5" cy="97.4706" rx="70.5" ry="66.3529" fill="url(#paint0_linear_1_17)"/>
<ellipse cx="107.5" cy="97.4706" rx="70.5" ry="66.3529" fill="url(#paint1_linear_1_17)"/>
<ellipse cx="107.5" cy="97.4706" rx="70.5" ry="66.3529" fill="url(#paint2_radial_1_17)" fill-opacity="0.7"/>
<path d="M124.982 90.4911C130.968 93.7436 133.961 95.3698 133.961 97.8655C133.961 100.361 130.968 101.987 124.982 105.24L103.744 116.781C98.2125 119.786 95.4467 121.289 93.3953 120.069C91.3439 118.849 91.3439 115.702 91.3439 109.406L91.3439 86.3247C91.3439 80.0294 91.3439 76.8817 93.3953 75.6617C95.4467 74.4417 98.2125 75.9445 103.744 78.9503L124.982 90.4911Z" fill="#62573E"/>
<g filter="url(#filter0_dd_1_17)">
<path d="M107.5 194.341C164.307 194.341 210.4 150.993 210.4 97.4706C210.4 43.9479 164.307 0.6 107.5 0.6C50.6931 0.6 4.6 43.9479 4.6 97.4706C4.6 150.993 50.6931 194.341 107.5 194.341Z" stroke="#FFD267" stroke-opacity="0.2" stroke-width="0.8" shape-rendering="crispEdges"/>
</g>
<defs>
<filter id="filter0_dd_1_17" x="0.200012" y="0.199951" width="214.6" height="202.541" filterUnits="userSpaceOnUse" color-interpolation-filters="sRGB">
<feFlood flood-opacity="0" result="BackgroundImageFix"/>
<feColorMatrix in="SourceAlpha" type="matrix" values="0 0 0 0 0 0 0 0 0 0 0 0 0 0 0 0 0 0 127 0" result="hardAlpha"/>
<feOffset dy="4"/>
<feGaussianBlur stdDeviation="2"/>
<feComposite in2="hardAlpha" operator="out"/>
<feColorMatrix type="matrix" values="0 0 0 0 0 0 0 0 0 0 0 0 0 0 0 0 0 0 0.25 0"/>
<feBlend mode="normal" in2="BackgroundImageFix" result="effect1_dropShadow_1_17"/>
<feColorMatrix in="SourceAlpha" type="matrix" values="0 0 0 0 0 0 0 0 0 0 0 0 0 0 0 0 0 0 127 0" result="hardAlpha"/>
<feOffset dy="4"/>
<feGaussianBlur stdDeviation="2"/>
<feComposite in2="hardAlpha" operator="out"/>
<feColorMatrix type="matrix" values="0 0 0 0 0 0 0 0 0 0 0 0 0 0 0 0 0 0 0.25 0"/>
<feBlend mode="normal" in2="effect1_dropShadow_1_17" result="effect2_dropShadow_1_17"/>
<feBlend mode="normal" in="SourceGraphic" in2="effect2_dropShadow_1_17" result="shape"/>
</filter>
<linearGradient id="paint0_linear_1_17" x1="107.5" y1="31.1177" x2="149.653" y2="159.881" gradientUnits="userSpaceOnUse">
<stop stop-color="#D9D9D9"/>
<stop offset="1" stop-color="#D9D9D9" stop-opacity="0"/>
</linearGradient>
<linearGradient id="paint1_linear_1_17" x1="55.0446" y1="53.2353" x2="149.734" y2="46.3787" gradientUnits="userSpaceOnUse">
<stop stop-color="#FFD46D"/>
<stop offset="0.494792" stop-color="#FDE4AB"/>
<stop offset="1" stop-color="#FFD166"/>
</linearGradient>
<radialGradient id="paint2_radial_1_17" cx="0" cy="0" r="1" gradientUnits="userSpaceOnUse" gradientTransform="translate(107.5 31.1177) rotate(90) scale(142.185 35.487)">
<stop stop-color="#FFEEC7"/>
<stop offset="1" stop-color="#FDE4AB" stop-opacity="0"/>
</radialGradient>
</defs>
</svg>
