<svg width="67" height="59" viewBox="0 0 67 59" fill="none" xmlns="http://www.w3.org/2000/svg">
<g id="logotip-master 1">
<g id="logo">
<path id="Vector" d="M49.89 11.6916C48.6041 8.51745 46.3185 5.78891 43.3392 3.87134C40.3599 1.95377 36.8292 0.938723 33.22 0.962142H32.87C29.2496 0.936495 25.7081 1.95695 22.7235 3.88575C19.7389 5.81455 17.4549 8.5588 16.18 11.748C6.49 15.1551 0 21.3951 0 28.5386C0 28.5386 10 33.1692 33.12 33.1692C56.24 33.1692 66.23 28.548 66.24 28.5386C66.24 21.3574 59.67 15.0892 49.89 11.6916Z" fill="#E9C12D"/>
<path id="Vector_2" d="M40.5601 9.50795C43.7422 9.92923 46.869 10.661 49.8901 11.6915C48.6042 8.51738 46.3186 5.78883 43.3393 3.87126C40.36 1.95369 36.8293 0.938648 33.2201 0.962066H32.8701C32.118 0.963177 31.3666 1.00718 30.6201 1.09383C36.4101 1.77148 39.2901 4.99971 40.5601 9.50795Z" fill="#D7A627"/>
<path id="Vector_3" d="M33.12 33.1692C10 33.1692 0 28.5386 0 28.5386C0 39.3245 14.83 48.068 33.12 48.068C51.41 48.068 66.24 39.3245 66.24 28.5386C66.24 28.5386 56.11 33.1692 33.12 33.1692Z" fill="#E9C12D"/>
<path id="Vector_4" d="M33.12 33.1692C10 33.1692 0 28.5386 0 28.5386C0 39.3245 14.83 48.068 33.12 48.068C51.41 48.068 66.24 39.3245 66.24 28.5386C66.24 28.5386 56.11 33.1692 33.12 33.1692Z" fill="#D7A627"/>
<path id="Vector_5" d="M57.0801 29.0187C57.0801 35.8046 46.3501 41.254 33.0801 41.254C19.8101 41.254 9.08008 35.7575 9.08008 29.0187C9.08008 22.2799 19.8101 16.7363 33.0801 16.7363C46.3501 16.7363 57.0801 22.2422 57.0801 29.0187Z" fill="#89583E"/>
<path id="Vector_6" d="M52.0701 32.134H51.9401C51.3181 27.8506 49.0684 23.9243 45.6074 21.0818C42.1464 18.2393 37.7085 16.6731 33.1151 16.6731C28.5216 16.6731 24.0837 18.2393 20.6227 21.0818C17.1618 23.9243 14.9121 27.8506 14.2901 32.134H14.1701C13.0844 32.1365 12.0441 32.5441 11.2774 33.2675C10.5107 33.9909 10.0801 34.971 10.0801 35.9928V37.5552C10.0827 38.5778 10.5155 39.5579 11.2839 40.281C12.0522 41.0041 13.0935 41.4115 14.1801 41.414C16.4401 49.0563 24.1101 54.374 33.1201 54.374C42.1301 54.374 49.9101 48.8775 52.0501 41.4234C53.1384 41.4234 54.1823 41.0171 54.9528 40.2937C55.7232 39.5703 56.1574 38.5889 56.1601 37.5646V35.9928C56.1601 34.971 55.7295 33.9909 54.9628 33.2675C54.196 32.5441 53.1557 32.1365 52.0701 32.134Z" fill="#EABF91"/>
<path id="Vector_7" d="M33.1197 58.4491C37.9929 58.4375 42.6751 56.6639 46.1983 53.4951C49.7215 50.3263 51.8163 46.0046 52.0497 41.4232C49.9097 48.8773 42.1197 54.3738 33.1197 54.3738C24.1197 54.3738 16.4397 49.0562 14.1797 41.4138C14.4107 45.9984 16.5058 50.3239 20.0314 53.495C23.557 56.666 28.2431 58.4398 33.1197 58.4491Z" fill="#DBA374"/>
<path id="Vector_8" d="M25.2998 34.5715C26.0132 34.5604 26.7192 34.7088 27.3598 35.0044C27.453 34.7274 27.5002 34.4385 27.4998 34.148C27.5441 33.5302 27.329 32.9208 26.9007 32.4508C26.4724 31.9808 25.8652 31.6879 25.2098 31.635C24.5543 31.6879 23.9471 31.9808 23.5188 32.4508C23.0906 32.9208 22.8754 33.5302 22.9198 34.148C22.9181 34.4686 22.9756 34.787 23.0898 35.0891C23.7634 34.7323 24.527 34.5535 25.2998 34.5715Z" fill="#533F56"/>
<path id="Vector_9" d="M24.8498 33.4703C24.8498 33.828 24.6198 34.1197 24.3398 34.1197C24.0598 34.1197 23.8398 33.828 23.8398 33.4703C23.8398 33.1127 24.0698 32.8303 24.3398 32.8303C24.6098 32.8303 24.8498 33.1221 24.8498 33.4703Z" fill="white"/>
<path id="Vector_10" d="M26.3204 32.9905C26.3204 33.2352 26.1704 33.4234 25.9904 33.4234C25.8104 33.4234 25.6504 33.2352 25.6504 32.9905C25.6504 32.7458 25.8004 32.5293 26.0004 32.5293C26.2004 32.5293 26.3304 32.7175 26.3304 32.9528" fill="white"/>
<path id="Vector_11" d="M37.3295 39.814H35.8495C35.5535 40.2756 35.1353 40.6571 34.6357 40.9211C34.1361 41.185 33.5723 41.3224 32.9995 41.3198C32.4445 41.3396 31.8954 41.208 31.4181 40.9408C30.9409 40.6737 30.5559 40.2823 30.3095 39.814H28.7395C24.7395 39.814 21.9195 42.4681 19.4395 43.7198C19.9609 44.0324 20.5057 44.3092 21.0695 44.5481C23.0546 45.4372 25.2898 45.7058 27.4486 45.3147C29.6074 44.9235 31.5769 43.8932 33.0695 42.374C34.562 43.8932 36.5315 44.9235 38.6903 45.3147C40.8492 45.7058 43.0843 45.4372 45.0695 44.5481C45.6343 44.3113 46.1792 44.0344 46.6995 43.7198C44.1395 42.4681 41.3495 39.814 37.3295 39.814Z" fill="#89583E"/>
<path id="Vector_12" d="M45.0001 44.5481C43.015 45.4373 40.7798 45.7059 38.621 45.3147C36.4622 44.9236 34.4927 43.8932 33.0001 42.374C31.5075 43.8932 29.5381 44.9236 27.3792 45.3147C25.2204 45.7059 22.9853 45.4373 21.0001 44.5481C20.4363 44.3093 19.8916 44.0325 19.3701 43.7199C18.6871 44.1033 17.9145 44.3231 17.1201 44.3599C18.2013 45.4769 19.5244 46.3627 21.0001 46.9576C22.9879 47.8414 25.2236 48.1054 27.3818 47.711C29.54 47.3166 31.5082 46.2844 33.0001 44.7646C34.4945 46.2813 36.4638 47.3099 38.6219 47.7009C40.78 48.0919 43.0143 47.8249 45.0001 46.9387C46.4779 46.3472 47.8017 45.4609 48.8801 44.3411C48.0858 44.3042 47.3132 44.0845 46.6301 43.7011C46.1105 44.0221 45.5656 44.3053 45.0001 44.5481Z" fill="#89583E"/>
<path id="Vector_13" d="M35.6898 37.5362C35.6898 37.5362 35.3498 30.948 33.0798 30.948C30.8098 30.948 30.4598 37.5362 30.4598 37.5362C30.4598 37.5362 28.4598 38.2798 28.8298 39.8139H30.2998C30.5469 40.2838 30.9335 40.6761 31.4128 40.9434C31.892 41.2107 32.4433 41.3414 32.9998 41.3198C33.5744 41.324 34.1403 41.1874 34.6418 40.9233C35.1432 40.6593 35.563 40.2769 35.8598 39.8139H37.3398C37.7098 38.2798 35.6898 37.5362 35.6898 37.5362Z" fill="#DBA374"/>
<path id="Vector_14" d="M40.8603 34.5715C41.5737 34.5604 42.2797 34.7088 42.9203 35.0044C43.0135 34.7274 43.0608 34.4385 43.0603 34.148C43.1047 33.5302 42.8895 32.9208 42.4613 32.4508C42.033 31.9808 41.4258 31.6879 40.7703 31.635C40.1149 31.6879 39.5077 31.9808 39.0794 32.4508C38.6511 32.9208 38.436 33.5302 38.4803 34.148C38.4786 34.4686 38.5361 34.787 38.6503 35.0891C39.324 34.7323 40.0876 34.5535 40.8603 34.5715Z" fill="#533F56"/>
<path id="Vector_15" d="M40.2598 33.4703C40.2598 33.828 40.0398 34.1197 39.7598 34.1197C39.4798 34.1197 39.2598 33.828 39.2598 33.4703C39.2598 33.1127 39.4798 32.8303 39.7598 32.8303C40.0398 32.8303 40.2598 33.1221 40.2598 33.4703Z" fill="white"/>
<path id="Vector_16" d="M41.7403 32.9904C41.7403 33.2351 41.5903 33.4234 41.4003 33.4234C41.2103 33.4234 41.0703 33.2351 41.0703 32.9904C41.0703 32.7457 41.2203 32.5669 41.4003 32.5669C41.5803 32.5669 41.7403 32.7551 41.7403 32.9904Z" fill="white"/>
<path id="Vector_17" d="M52.0703 39.1926C52.3509 39.1926 52.6287 39.1405 52.8877 39.0391C53.1468 38.9378 53.3821 38.7893 53.58 38.6021C53.7779 38.415 53.9346 38.1929 54.0411 37.9486C54.1475 37.7043 54.2016 37.4426 54.2003 37.1785V36.3691C54.2016 36.105 54.1475 35.8434 54.0411 35.599C53.9346 35.3547 53.7779 35.1326 53.58 34.9455C53.3821 34.7583 53.1468 34.6098 52.8877 34.5085C52.6287 34.4071 52.3509 34.355 52.0703 34.355V39.1926Z" fill="#DBA374"/>
<path id="Vector_18" d="M14.17 34.3551C13.8861 34.3501 13.604 34.3985 13.3403 34.4976C13.0766 34.5967 12.8366 34.7444 12.6344 34.9321C12.4322 35.1197 12.2719 35.3435 12.163 35.5903C12.054 35.8371 11.9986 36.102 12 36.3692V37.1786C11.9987 37.4427 12.0528 37.7044 12.1593 37.9487C12.2657 38.193 12.4224 38.4151 12.6203 38.6023C12.8183 38.7894 13.0535 38.9379 13.3126 39.0392C13.5717 39.1406 13.8495 39.1927 14.13 39.1927L14.17 34.3551Z" fill="#DBA374"/>
<path id="Vector_19" d="M29.0995 23.0328C17.8995 22.4587 15.1895 14.5622 15.1895 14.5622C26.4395 15.9175 35.4595 10.4493 41.3295 10.7975C45.2495 11.0045 47.9295 13.1881 47.7595 15.9269C47.5495 19.5128 41.9995 23.6916 29.0995 23.0328Z" fill="#D47729"/>
<path id="Vector_20" d="M20.8806 30.6468C20.687 30.6478 20.4968 30.599 20.3306 30.5055C20.1644 30.412 20.0286 30.2774 19.9379 30.1164C19.8472 29.9554 19.8051 29.7741 19.8162 29.5922C19.8272 29.4102 19.891 29.2346 20.0006 29.0844C22.4506 25.9691 26.7906 26.7785 28.7506 27.635C29.0035 27.749 29.1981 27.9526 29.2918 28.2013C29.3855 28.4501 29.3707 28.7236 29.2506 28.9621C29.1974 29.0841 29.1174 29.1942 29.016 29.2853C28.9146 29.3764 28.794 29.4464 28.662 29.4908C28.53 29.5351 28.3895 29.5529 28.2497 29.5429C28.11 29.5329 27.974 29.4953 27.8506 29.4326C27.6706 29.3573 23.7206 27.6821 21.7006 30.2609C21.6029 30.3784 21.4786 30.4739 21.3368 30.5407C21.1949 30.6074 21.0391 30.6436 20.8806 30.6468Z" fill="#BE6624"/>
<path id="Vector_21" d="M45.0901 30.0163C44.9485 30.0159 44.8084 29.9891 44.678 29.9374C44.5475 29.8857 44.4293 29.8101 44.3301 29.7151C41.8501 27.3245 38.5301 29.2822 38.3901 29.3669C38.2767 29.4437 38.1475 29.4974 38.0108 29.5244C37.8741 29.5514 37.7329 29.5512 37.5963 29.5237C37.4597 29.4962 37.3307 29.4421 37.2177 29.3648C37.1047 29.2876 37.0101 29.1889 36.9401 29.0751C36.8638 28.9659 36.8114 28.8436 36.7857 28.7152C36.76 28.5869 36.7616 28.455 36.7905 28.3272C36.8193 28.1994 36.8748 28.0783 36.9536 27.9708C37.0325 27.8633 37.1333 27.7716 37.2501 27.701C38.9401 26.6845 42.9001 25.4986 45.8401 28.3316C45.9818 28.472 46.0771 28.6482 46.1142 28.8387C46.1514 29.0291 46.1288 29.2257 46.0493 29.4043C45.9698 29.5829 45.8367 29.7359 45.6664 29.8446C45.4961 29.9533 45.2958 30.0129 45.0901 30.0163Z" fill="#BE6624"/>
<path id="Vector_22" d="M43.34 21.0093C40.34 22.4587 35.67 23.381 29.1 23.0422C27.1627 22.9605 25.2503 22.5986 23.43 21.9693C22.5328 21.9946 21.6567 22.2321 20.8826 22.6597C20.1084 23.0873 19.461 23.6914 19 24.4163C23.6367 25.4047 28.367 25.9533 33.12 26.054C37.9877 25.9341 42.8311 25.3635 47.58 24.3505C46.44 22.1763 45 21.0093 43.34 21.0093Z" fill="#DBA374"/>
<path id="Vector_23" d="M52.0701 32.1339C52.6758 32.1368 53.2733 32.2654 53.8201 32.5104V27.9457C53.8201 23.9363 51.0701 18.8069 47.3701 17.4233C46.5078 19.009 45.0968 20.2705 43.3701 20.9998C47.1501 20.9998 49.7701 26.9857 49.8701 37.3951H52.0901L52.0701 32.1339Z" fill="#BE6624"/>
<path id="Vector_24" d="M17.4295 18.0728C14.4295 20.021 12.2695 24.4163 12.2695 27.9457V32.5763C12.8542 32.283 13.507 32.131 14.1695 32.1339V37.4045H16.2295C16.2295 25.988 19.3995 22.0163 23.4295 21.9598C21.1125 21.1624 19.0482 19.825 17.4295 18.0728Z" fill="#BE6624"/>
<path id="Vector_25" d="M45.0001 44.5481C43.015 45.4373 40.7798 45.7059 38.621 45.3147C36.4622 44.9236 34.4927 43.8932 33.0001 42.374C31.5075 43.8932 29.5381 44.9236 27.3792 45.3147C25.2204 45.7059 22.9853 45.4373 21.0001 44.5481C20.4363 44.3093 19.8916 44.0325 19.3701 43.7199C18.6871 44.1033 17.9145 44.3231 17.1201 44.3599C18.2013 45.4769 19.5244 46.3627 21.0001 46.9576C22.9879 47.8414 25.2236 48.1054 27.3818 47.711C29.54 47.3166 31.5082 46.2844 33.0001 44.7646C34.4945 46.2813 36.4638 47.3099 38.6219 47.7009C40.78 48.0919 43.0143 47.8249 45.0001 46.9387C46.4779 46.3472 47.8017 45.4609 48.8801 44.3411C48.0858 44.3042 47.3132 44.0845 46.6301 43.7011C46.1105 44.0221 45.5656 44.3053 45.0001 44.5481Z" fill="#714C3B"/>
</g>
</g>
</svg>
